<svg width="34" height="35" viewBox="0 0 34 35" fill="none" xmlns="http://www.w3.org/2000/svg">
<g clip-path="url(#clip0_3903_349)">
<path d="M16.6898 8.5542C12.0032 8.5542 8.20908 12.4475 8.20908 17.247C8.20908 22.0507 12.0074 25.9397 16.6898 25.9397C21.3764 25.9397 25.1706 22.0465 25.1706 17.247C25.1706 12.4432 21.3723 8.5542 16.6898 8.5542ZM16.6898 22.8892C13.6476 22.8892 11.1852 20.3638 11.1852 17.247C11.1852 14.1301 13.649 11.6047 16.6898 11.6047C19.7307 11.6047 22.1945 14.1301 22.1945 17.247C22.1958 20.3638 19.732 22.8892 16.6898 22.8892Z" fill="#283C63"/>
<path d="M23.4989 0.419406C20.4581 0.274009 12.9262 0.281067 9.8826 0.419406C7.20809 0.547863 4.84896 1.20991 2.94706 3.15937C-0.231504 6.41739 0.174768 10.8075 0.174768 17.2459C0.174768 23.8354 -0.183302 28.1239 2.94706 31.3325C6.13801 34.6018 10.4831 34.1741 16.6901 34.1741C23.0582 34.1741 25.2562 34.1784 27.5079 33.2848C30.5694 32.0666 32.8803 29.2617 33.1062 24.2236C33.2494 21.1053 33.2412 13.3866 33.1062 10.2669C32.8335 4.31972 29.7197 0.713023 23.4989 0.419406ZM28.3122 29.177C26.2285 31.3128 23.3378 31.1222 16.6501 31.1222C9.76416 31.1222 7.00289 31.2267 4.98806 29.1558C2.66749 26.7885 3.08753 22.987 3.08753 17.2234C3.08753 9.42415 2.30666 3.8073 9.9432 3.4064C11.6977 3.34288 12.2142 3.3217 16.6308 3.3217L16.6928 3.36405C24.0319 3.36405 29.7899 2.57636 30.1356 10.4024C30.2141 12.1881 30.232 12.7245 30.232 17.2445C30.2306 24.2208 30.3601 27.068 28.3122 29.177Z" fill="#283C63"/>
<path d="M25.5065 10.2428C26.601 10.2428 27.4883 9.33336 27.4883 8.21149C27.4883 7.08963 26.601 6.18018 25.5065 6.18018C24.412 6.18018 23.5247 7.08963 23.5247 8.21149C23.5247 9.33336 24.412 10.2428 25.5065 10.2428Z" fill="#283C63"/>
</g>
<defs>
<clipPath id="clip0_3903_349">
<rect width="33.0526" height="33.8789" fill="white" transform="translate(0.157898 0.31311)"/>
</clipPath>
</defs>
</svg>
