<svg width="32" height="26" viewBox="0 0 32 26" fill="none" xmlns="http://www.w3.org/2000/svg">
<path d="M31.3723 3.68836C30.2318 4.19371 29.0081 4.53644 27.7223 4.68945C29.0352 3.90329 30.0401 2.65632 30.5164 1.17503C29.285 1.90307 27.9256 2.43172 26.4772 2.71829C25.3174 1.481 23.6677 0.710327 21.8378 0.710327C18.3273 0.710327 15.4809 3.55671 15.4809 7.06531C15.4809 7.56293 15.5371 8.04894 15.6455 8.51369C10.3633 8.24838 5.67934 5.71764 2.54445 1.87208C1.99646 2.80928 1.68472 3.90131 1.68472 5.06702C1.68472 7.2725 2.80779 9.21849 4.51176 10.357C3.47001 10.3222 2.49022 10.0356 1.63247 9.55925V9.63864C1.63247 12.7174 3.82438 15.2869 6.73077 15.8717C6.19827 16.0149 5.63676 16.0943 5.05586 16.0943C4.64538 16.0943 4.24843 16.0537 3.85922 15.9762C4.66857 18.5031 7.01542 20.3406 9.79598 20.391C7.62149 22.095 4.87966 23.1077 1.90163 23.1077C1.38852 23.1077 0.883111 23.0767 0.385498 23.0206C3.19897 24.8272 6.53912 25.8805 10.129 25.8805C21.8224 25.8805 28.2142 16.195 28.2142 7.79533L28.1929 6.9724C29.4418 6.08163 30.5222 4.96246 31.3723 3.68836Z" fill="#283C63"/>
</svg>
