<svg width="30" height="23" viewBox="0 0 30 23" fill="none" xmlns="http://www.w3.org/2000/svg">
<path d="M28.9646 3.6315C28.6047 1.95127 27.3259 0.711641 25.7863 0.526724C22.1407 0.0893807 18.4508 0.0870979 14.7779 0.0893808C11.1043 0.0870979 7.41378 0.0893807 3.76815 0.526724C2.22954 0.711641 0.951617 1.95127 0.591698 3.6315C0.0794354 6.02434 0.0736694 8.63633 0.0736694 11.0999C0.0736694 13.5635 0.0736694 16.1752 0.585932 18.5677C0.945244 20.2476 2.22347 21.4872 3.76299 21.6725C7.40831 22.1102 11.0985 22.1124 14.7721 22.1102C18.4462 22.1124 22.1356 22.1102 25.7806 21.6725C27.3192 21.4876 28.5983 20.2479 28.9583 18.5677C29.4708 16.1749 29.4726 13.5632 29.4726 11.0999C29.4726 8.63633 29.4769 6.02434 28.9646 3.6315ZM10.9793 16.0037C10.9793 12.5088 10.9793 9.05052 10.9793 5.55536C14.095 7.30245 17.1902 9.0378 20.3257 10.7957C17.1999 12.5378 14.1032 14.2628 10.9793 16.0037Z" fill="#283C63"/>
</svg>
